<svg viewBox="0 0 128 128" xmlns="http://www.w3.org/2000/svg"><defs><linearGradient id="lg" x1="0" y1="0" x2="1" y2="1"><stop offset="0" stop-color="#34d399"/><stop offset="1" stop-color="#047857"/></linearGradient></defs><rect x="4" y="4" width="120" height="120" rx="28" fill="url(#lg)"/><path d="M40 26h34l20 20v56a4 4 0 0 1-4 4H40a4 4 0 0 1-4-4V30a4 4 0 0 1 4-4z" fill="#fff"/><path d="M74 26v20h20z" fill="#d1fae5"/><rect x="48" y="58" width="32" height="6" rx="3" fill="#047857"/><rect x="48" y="72" width="24" height="6" rx="3" fill="#34d399"/><circle cx="82" cy="93" r="15" fill="#047857"/><circle cx="82" cy="88" r="4.2" fill="#fff"/><path d="M73 100c0-5.5 4-9 9-9s9 3.5 9 9" fill="none" stroke="#fff" stroke-width="3" stroke-linecap="round"/></svg>
